<?xml version="1.0" encoding="UTF-8" standalone="no"?>
<!DOCTYPE svg PUBLIC "-//W3C//DTD SVG 1.1//EN" "http://www.w3.org/Graphics/SVG/1.1/DTD/svg11.dtd">
<svg width="100%" height="100%" viewBox="0 0 400 400" version="1.1" xmlns="http://www.w3.org/2000/svg" xmlns:xlink="http://www.w3.org/1999/xlink" xml:space="preserve" style="fill-rule:evenodd;clip-rule:evenodd;stroke-linejoin:round;stroke-miterlimit:1.41421;">
    <g transform="matrix(0.619261,0,0,1,48.205,-75.1924)">
        <path d="M135.991,95.468L137.246,95.546L138.483,95.7L139.69,95.928L140.854,96.228L141.967,96.597L141.968,96.598L142.973,97.011L143.91,97.482L144.773,98.004L145.554,98.574L146.245,99.186L146.841,99.836L147.336,100.517L147.337,100.519L147.748,101.27L148.037,102.043L148.061,102.154L148.099,102.215L148.147,102.291L148.201,102.374L148.261,102.465L148.327,102.562L148.398,102.666L148.474,102.776L148.556,102.891L148.637,103.006L148.832,103.274L149.04,103.555L149.267,103.855L149.512,104.173L149.775,104.51L150.054,104.863L150.35,105.232L150.662,105.617L150.989,106.017L151.331,106.431L151.688,106.86L152.06,107.302L152.445,107.757L152.843,108.226L153.255,108.706L153.68,109.199L154.117,109.704L154.566,110.22L155.028,110.748L155.501,111.286L155.985,111.835L156.48,112.394L156.986,112.963L157.502,113.542L158.028,114.131L158.564,114.729L159.108,115.334L160.229,116.575L161.382,117.847L162.569,119.151L163.785,120.483L165.03,121.842L166.301,123.226L167.596,124.634L168.914,126.062L170.251,127.511L171.605,128.976L174.361,131.954L177.162,134.98L179.992,138.038L181.414,139.577L182.837,141.118L184.259,142.66L185.679,144.202L187.094,145.741L188.502,147.277L189.901,148.807L191.29,150.329L192.666,151.841L194.027,153.343L195.37,154.83L196.037,155.571L196.697,156.306L197.352,157.038L198.002,157.765L198.646,158.487L199.284,159.205L199.917,159.918L200.542,160.626L201.161,161.328L201.774,162.025L202.379,162.717L202.977,163.402L203.567,164.082L204.15,164.755L204.724,165.422L205.29,166.082L205.848,166.735L206.397,167.381L206.937,168.02L207.468,168.651L207.99,169.275L208.502,169.892L209.004,170.5L209.496,171.101L209.978,171.693L210.45,172.277L210.911,172.853L211.361,173.42L211.8,173.979L212.228,174.529L212.645,175.07L213.051,175.603L213.445,176.127L213.831,176.648L214.063,176.966L214.299,177.299L214.537,177.64L214.776,177.989L215.017,178.346L215.261,178.713L215.507,179.089L215.756,179.474L216.007,179.869L216.262,180.273L216.521,180.686L216.782,181.109L217.047,181.541L217.315,181.982L217.587,182.433L217.861,182.892L218.139,183.36L218.421,183.837L218.705,184.322L218.993,184.815L219.283,185.316L219.577,185.826L219.874,186.343L220.175,186.87L220.781,187.937L221.398,189.035L222.026,190.159L222.663,191.306L223.309,192.475L223.962,193.664L224.622,194.872L225.288,196.095L225.96,197.333L226.636,198.583L227.316,199.844L227.999,201.113L229.369,203.667L230.742,206.232L233.466,211.327L234.803,213.825L235.462,215.053L236.114,216.266L236.759,217.46L236.892,217.707L237.19,217.259L237.974,216.079L238.772,214.876L239.583,213.651L240.405,212.406L242.084,209.86L243.802,207.25L245.551,204.588L249.12,199.149L252.737,193.636L254.549,190.879L256.353,188.136L258.144,185.419L259.915,182.74L260.792,181.416L261.661,180.106L262.522,178.811L263.374,177.532L264.217,176.271L265.049,175.028L265.87,173.806L266.678,172.605L267.475,171.426L268.257,170.272L269.026,169.143L269.776,168.046L270.461,167.045L271.318,165.79L273.505,162.586L276.237,158.583L279.416,153.93L281.142,151.405L282.943,148.774L284.807,146.054L286.721,143.264L288.672,140.422L290.65,137.548L292.641,134.659L294.633,131.773L296.614,128.91L297.598,127.492L298.573,126.087L299.54,124.696L300.496,123.323L301.441,121.968L302.372,120.635L303.289,119.326L304.189,118.044L305.071,116.789L305.934,115.565L306.776,114.373L307.596,113.217L308.393,112.098L309.164,111.018L309.909,109.979L310.626,108.984L311.314,108.034L311.972,107.132L312.599,106.278L313.191,105.479L313.478,105.093L313.755,104.724L314.023,104.368L314.284,104.026L314.536,103.696L314.78,103.379L315.016,103.075L315.245,102.783L315.468,102.503L315.685,102.234L315.896,101.975L316.106,101.724L316.315,101.478L316.529,101.233L316.756,100.982L316.985,100.739L317.145,100.576L317.302,100.421L317.483,100.249L317.698,100.053L317.964,99.825L318.31,99.548L318.788,99.198L319.094,99L319.877,98.535L320.721,98.112L320.735,98.106L321.529,97.769L322.36,97.47L323.226,97.209L323.233,97.207L324.213,96.969L325.22,96.781L325.228,96.78L326.283,96.641L327.354,96.556L327.362,96.556L328.402,96.527L329.442,96.55L329.45,96.551L330.371,96.615L331.282,96.72L332.179,96.865L332.196,96.868L333.115,97.063L334.008,97.3L334.869,97.577L334.887,97.584L335.777,97.928L336.62,98.315L336.638,98.325L337.214,98.631L337.76,98.957L338.171,99.218L338.814,99.703L339.271,100.098L339.612,100.427L339.874,100.704L340.082,100.941L340.254,101.15L340.422,101.366L340.626,101.649L340.811,101.927L340.966,102.175L341.103,102.407L341.228,102.629L341.346,102.845L341.458,103.06L341.568,103.275L341.676,103.492L341.783,103.713L341.89,103.939L341.997,104.17L342.106,104.407L342.215,104.65L342.326,104.9L342.438,105.157L342.555,105.426L342.785,105.968L343.026,106.545L343.274,107.15L343.53,107.783L343.793,108.444L344.063,109.13L344.341,109.843L344.626,110.579L344.916,111.34L345.213,112.122L345.516,112.926L345.825,113.75L346.138,114.593L346.456,115.454L346.779,116.331L347.105,117.223L347.435,118.129L347.768,119.047L348.104,119.978L348.442,120.919L349.123,122.823L349.809,124.753L350.496,126.698L351.18,128.647L351.859,130.59L352.528,132.516L353.186,134.415L353.827,136.276L354.449,138.089L355.049,139.843L355.623,141.529L356.168,143.134L356.68,144.65L357.156,146.065L357.593,147.369L357.985,148.547L358.203,149.201L358.421,149.85L358.641,150.5L358.862,151.149L359.084,151.798L359.308,152.448L359.533,153.098L359.76,153.747L359.989,154.397L360.219,155.047L360.45,155.696L360.683,156.346L360.917,156.996L361.152,157.646L361.39,158.296L361.628,158.946L361.868,159.596L362.109,160.245L362.352,160.895L362.596,161.545L362.841,162.195L363.088,162.845L363.336,163.494L363.585,164.144L363.836,164.793L364.088,165.442L364.342,166.092L364.597,166.741L364.853,167.39L365.11,168.039L365.369,168.688L365.629,169.336L365.89,169.985L366.152,170.633L366.416,171.282L366.681,171.929L366.947,172.577L367.214,173.225L367.483,173.873L367.753,174.52L368.024,175.167L368.296,175.814L368.569,176.46L368.844,177.107L369.12,177.753L369.397,178.398L369.675,179.044L369.954,179.689L370.234,180.334L370.516,180.979L370.798,181.624L371.081,182.266L371.653,183.555L372.228,184.841L372.807,186.126L373.39,187.409L373.978,188.69L374.57,189.97L375.165,191.248L375.765,192.525L376.368,193.8L376.975,195.073L377.586,196.344L378.201,197.613L378.819,198.879L379.441,200.144L380.066,201.407L380.694,202.667L381.326,203.925L381.961,205.181L382.599,206.434L383.24,207.684L383.884,208.932L384.531,210.177L385.182,211.42L385.834,212.66L386.49,213.896L387.149,215.13L387.809,216.361L388.473,217.589L389.139,218.814L389.807,220.035L390.478,221.253L391.151,222.468L391.826,223.68L392.504,224.888L393.183,226.092L393.864,227.293L394.548,228.49L395.238,229.692L395.513,230.171L395.795,230.668L396.08,231.172L396.367,231.685L396.657,232.206L396.949,232.734L397.243,233.27L397.54,233.813L397.839,234.364L398.14,234.922L398.443,235.487L398.748,236.059L399.056,236.638L399.365,237.223L399.676,237.815L399.99,238.413L400.305,239.017L400.622,239.629L401.26,240.864L401.905,242.123L402.556,243.402L403.212,244.7L403.873,246.015L404.538,247.347L405.207,248.693L405.879,250.052L406.554,251.423L407.231,252.804L407.91,254.194L408.59,255.592L409.27,256.995L409.95,258.403L410.629,259.814L411.308,261.226L411.984,262.638L412.658,264.049L413.33,265.458L414.661,268.258L415.974,271.029L417.264,273.759L418.526,276.435L420.95,281.578L422.102,284.02L423.207,286.36L424.262,288.588L424.768,289.653L425.26,290.685L425.737,291.683L426.198,292.644L426.642,293.566L427.069,294.449L427.478,295.29L427.869,296.087L428.24,296.839L428.59,297.543L428.919,298.197L429.225,298.798L429.51,299.35L429.639,299.596L429.764,299.832L429.881,300.052L429.991,300.255L430.093,300.44L430.186,300.607L430.27,300.753L430.342,300.878L430.402,300.978L430.472,301.094L430.874,301.866L431.146,302.658L431.288,303.464L431.298,304.274L431.175,305.081L430.922,305.876L430.539,306.651L430.032,307.398L429.405,308.11L428.666,308.778L427.821,309.397L426.879,309.96L425.85,310.46L424.745,310.894L423.574,311.256L422.35,311.543L421.086,311.752L419.794,311.881L418.487,311.928L417.18,311.893L415.885,311.776L414.616,311.579L413.385,311.303L412.206,310.952L411.09,310.528L410.05,310.037L409.095,309.483L408.235,308.872L407.479,308.21L406.836,307.505L406.311,306.762L406.198,306.577L406.061,306.348L405.926,306.115L405.79,305.876L405.653,305.63L405.513,305.375L405.37,305.111L405.224,304.838L405.074,304.555L404.918,304.257L404.601,303.643L404.264,302.982L403.91,302.278L403.539,301.533L403.151,300.746L402.746,299.919L402.325,299.053L401.887,298.149L401.434,297.207L400.965,296.23L400.482,295.219L399.985,294.175L399.473,293.098L398.412,290.859L397.302,288.509L396.148,286.061L393.725,280.919L392.465,278.249L391.179,275.528L389.872,272.769L388.547,269.982L387.88,268.584L387.211,267.183L386.54,265.781L385.867,264.38L385.193,262.982L384.52,261.587L383.847,260.198L383.174,258.816L382.504,257.443L381.836,256.079L381.17,254.728L380.508,253.389L379.85,252.065L379.196,250.757L378.548,249.467L377.906,248.196L377.27,246.947L376.641,245.72L376.019,244.514L375.713,243.925L375.408,243.34L375.105,242.761L374.804,242.19L374.506,241.626L374.21,241.069L373.918,240.521L373.627,239.98L373.34,239.447L373.055,238.923L372.774,238.407L372.496,237.9L372.221,237.402L371.949,236.914L371.68,236.435L371.415,235.966L371.154,235.506L370.892,235.049L370.196,233.836L369.496,232.611L368.799,231.382L368.104,230.15L367.411,228.914L366.72,227.674L366.031,226.431L365.345,225.184L364.661,223.934L363.979,222.681L363.3,221.424L362.623,220.165L361.95,218.902L361.278,217.635L360.61,216.366L359.944,215.094L359.282,213.819L358.622,212.541L357.965,211.261L357.312,209.978L356.662,208.692L356.015,207.403L355.371,206.112L354.73,204.819L354.093,203.523L353.46,202.224L352.83,200.924L352.204,199.621L351.582,198.316L350.963,197.009L350.348,195.7L349.738,194.39L349.131,193.077L348.528,191.762L347.929,190.446L347.335,189.127L346.745,187.808L346.16,186.488L345.868,185.825L345.578,185.163L345.289,184.501L345.001,183.839L344.714,183.176L344.429,182.513L344.144,181.85L343.861,181.186L343.579,180.522L343.298,179.858L343.018,179.193L342.74,178.528L342.462,177.863L342.186,177.197L341.911,176.532L341.638,175.866L341.365,175.199L341.094,174.533L340.824,173.866L340.555,173.199L340.288,172.532L340.022,171.864L339.757,171.196L339.494,170.529L339.232,169.861L338.971,169.192L338.711,168.524L338.453,167.855L338.196,167.186L337.941,166.517L337.687,165.848L337.434,165.179L337.182,164.51L336.932,163.84L336.684,163.171L336.437,162.501L336.191,161.831L335.946,161.161L335.704,160.491L335.462,159.821L335.222,159.151L334.983,158.481L334.746,157.81L334.511,157.14L334.277,156.47L334.044,155.799L333.813,155.129L333.583,154.458L333.355,153.788L333.128,153.117L332.903,152.447L332.681,151.782L332.291,150.61L331.859,149.321L331.388,147.92L330.88,146.417L330.34,144.824L329.77,143.151L329.175,141.41L328.557,139.609L327.92,137.762L327.267,135.877L326.603,133.966L325.93,132.039L325.252,130.107L324.8,128.829L324.219,129.662L323.268,131.027L322.307,132.41L321.337,133.808L320.359,135.218L318.386,138.069L316.401,140.944L314.417,143.823L312.445,146.689L310.499,149.523L308.589,152.306L306.73,155.021L304.932,157.647L303.209,160.166L300.034,164.814L297.304,168.815L295.115,172.022L294.254,173.283L293.567,174.287L292.826,175.37L292.072,176.477L291.303,177.612L290.519,178.772L289.721,179.956L288.911,181.164L288.088,182.393L287.254,183.641L286.41,184.909L285.556,186.193L284.693,187.493L283.823,188.806L282.061,191.473L280.277,194.178L278.478,196.912L276.671,199.663L273.056,205.172L269.485,210.615L267.731,213.284L266.007,215.903L264.321,218.461L263.492,219.715L262.676,220.948L261.871,222.161L261.08,223.352L260.303,224.52L259.539,225.663L258.792,226.78L258.06,227.87L257.345,228.931L256.648,229.962L255.968,230.961L255.308,231.929L254.667,232.863L254.046,233.762L253.446,234.626L252.867,235.453L252.312,236.238L252.039,236.622L251.774,236.992L251.515,237.353L251.26,237.704L251.011,238.046L250.768,238.377L250.53,238.699L250.297,239.012L250.068,239.315L249.845,239.608L249.626,239.892L249.411,240.168L249.2,240.436L248.99,240.697L248.783,240.951L248.576,241.2L248.367,241.445L248.153,241.689L247.931,241.935L247.695,242.188L247.457,242.431L247.296,242.59L247.142,242.737L246.971,242.894L246.782,243.062L246.568,243.245L246.316,243.449L246.019,243.676L245.657,243.934L245.199,244.234L244.544,244.62L244.13,244.828L243.592,245.084L243.033,245.322L243.019,245.328L242.399,245.562L241.759,245.774L241.745,245.779L241.053,245.977L240.344,246.15L240.329,246.154L239.602,246.301L238.861,246.421L238.846,246.423L238.101,246.516L237.348,246.581L237.332,246.582L236.601,246.619L235.867,246.63L235.851,246.63L235.159,246.617L234.469,246.58L234.452,246.579L233.191,246.453L232.616,246.377L231.554,246.174L230.628,245.946L229.827,245.706L229.135,245.464L228.415,245.179L227.584,244.794L226.846,244.391L226.272,244.036L225.816,243.722L225.445,243.444L225.132,243.191L224.867,242.963L224.638,242.754L224.433,242.558L224.249,242.375L224.083,242.203L223.929,242.038L223.785,241.877L223.649,241.722L223.52,241.571L223.397,241.422L223.277,241.275L223.161,241.13L223.038,240.972L222.828,240.696L222.613,240.404L222.4,240.108L222.189,239.806L221.978,239.497L221.765,239.18L221.551,238.855L221.334,238.521L221.114,238.178L220.891,237.825L220.665,237.462L220.435,237.09L220.202,236.708L219.965,236.316L219.724,235.914L219.48,235.502L219.231,235.081L218.979,234.65L218.723,234.21L218.463,233.76L218.199,233.302L217.932,232.834L217.659,232.355L217.109,231.381L216.543,230.37L215.963,229.329L215.372,228.258L214.769,227.161L214.155,226.037L213.53,224.89L212.896,223.721L212.254,222.533L211.603,221.326L210.946,220.103L210.282,218.866L208.94,216.359L206.215,211.263L204.847,208.706L203.483,206.165L202.806,204.907L202.133,203.658L201.464,202.421L200.801,201.199L200.144,199.993L199.495,198.806L198.854,197.639L198.223,196.496L197.602,195.377L196.992,194.285L196.394,193.223L195.807,192.189L195.522,191.689L195.238,191.195L194.959,190.71L194.683,190.235L194.411,189.769L194.144,189.314L193.881,188.868L193.623,188.433L193.37,188.01L193.121,187.598L192.878,187.197L192.64,186.809L192.408,186.433L192.181,186.071L191.961,185.721L191.747,185.386L191.539,185.065L191.339,184.759L191.146,184.469L190.962,184.195L190.786,183.938L190.619,183.7L190.463,183.48L190.313,183.273L189.992,182.841L189.653,182.39L189.299,181.924L188.93,181.446L188.548,180.955L188.152,180.451L187.743,179.936L187.321,179.409L186.886,178.871L186.44,178.322L185.981,177.762L185.511,177.192L185.029,176.612L184.536,176.023L184.033,175.424L183.519,174.816L182.995,174.2L182.461,173.575L181.918,172.941L181.365,172.3L180.804,171.651L180.233,170.994L179.655,170.331L179.068,169.66L178.473,168.983L177.87,168.299L177.261,167.61L176.644,166.914L176.02,166.212L175.39,165.505L174.753,164.793L174.111,164.076L173.463,163.355L172.81,162.63L171.486,161.163L170.144,159.683L168.786,158.19L167.414,156.685L166.028,155.171L164.633,153.649L163.229,152.121L161.819,150.59L160.404,149.056L158.988,147.522L157.572,145.99L154.746,142.936L151.944,139.91L149.184,136.927L147.824,135.455L146.479,133.999L145.153,132.561L143.847,131.142L142.564,129.744L141.304,128.368L140.07,127.017L139.564,126.462L139.425,126.826L138.875,128.278L138.316,129.754L137.751,131.254L137.179,132.774L136.601,134.312L136.019,135.867L135.434,137.435L134.846,139.015L134.257,140.603L133.667,142.199L133.077,143.799L132.489,145.401L131.902,147.004L131.319,148.603L130.739,150.199L130.165,151.787L129.596,153.366L129.034,154.933L128.48,156.487L127.935,158.024L127.399,159.542L126.873,161.04L126.359,162.514L125.858,163.962L125.37,165.383L124.897,166.773L124.438,168.13L123.996,169.452L123.571,170.738L123.366,171.363L123.165,171.98L122.969,172.586L122.778,173.181L122.592,173.764L122.411,174.336L122.235,174.896L122.065,175.443L121.9,175.978L121.742,176.499L121.589,177.007L121.442,177.501L121.301,177.981L121.166,178.446L121.038,178.896L120.916,179.33L120.801,179.748L120.69,180.159L120.421,181.166L120.143,182.197L119.859,183.24L119.569,184.297L119.273,185.365L118.972,186.446L118.665,187.539L118.353,188.644L118.036,189.76L117.714,190.886L117.387,192.024L117.055,193.171L116.719,194.329L116.378,195.497L116.032,196.674L115.682,197.86L115.328,199.055L114.97,200.259L114.608,201.471L114.243,202.691L113.873,203.918L113.5,205.153L113.124,206.394L112.744,207.644L111.975,210.158L111.195,212.696L110.403,215.255L109.603,217.831L108.793,220.423L107.976,223.028L107.152,225.643L106.323,228.266L105.489,230.893L104.651,233.524L103.811,236.154L102.969,238.783L102.127,241.406L101.285,244.021L100.445,246.627L99.607,249.22L98.773,251.798L97.943,254.358L96.301,259.414L94.69,264.369L93.117,269.201L91.591,273.891L90.12,278.417L88.712,282.76L88.035,284.854L87.376,286.896L86.738,288.881L86.12,290.807L85.524,292.671L84.952,294.471L84.403,296.203L83.88,297.866L83.383,299.456L82.914,300.97L82.472,302.408L82.263,303.094L82.061,303.761L81.867,304.407L81.681,305.031L81.502,305.633L81.332,306.213L81.17,306.77L81.017,307.303L80.872,307.813L80.736,308.297L80.61,308.757L80.492,309.191L80.384,309.598L80.286,309.977L80.198,310.327L80.12,310.646L80.052,310.934L79.996,311.187L79.95,311.402L79.914,311.588L79.904,311.646L79.895,311.702L79.888,311.743L79.879,311.808L79.7,312.611L79.39,313.398L78.953,314.162L78.394,314.895L77.718,315.589L76.932,316.236L76.044,316.832L75.063,317.368L74,317.841L72.865,318.244L71.67,318.575L70.427,318.828L69.149,319.003L67.849,319.096L66.541,319.108L65.237,319.038L63.952,318.886L62.697,318.655L61.488,318.346L60.334,317.963L59.25,317.509L58.244,316.991L57.329,316.411L56.513,315.778L55.805,315.096L55.212,314.374L54.74,313.618L54.394,312.836L54.177,312.037L54.092,311.229L54.139,310.419L54.159,310.283L54.186,310.109L54.215,309.936L54.247,309.753L54.312,309.417L54.388,309.059L54.471,308.688L54.561,308.301L54.66,307.897L54.767,307.474L54.881,307.031L55.004,306.569L55.135,306.086L55.274,305.583L55.42,305.06L55.575,304.515L55.737,303.95L55.908,303.365L56.085,302.759L56.271,302.133L56.463,301.488L56.664,300.822L56.871,300.137L57.086,299.431L57.536,297.967L58.013,296.427L58.517,294.815L59.046,293.134L59.6,291.385L60.177,289.572L60.776,287.695L61.397,285.759L62.039,283.765L62.7,281.716L63.379,279.614L64.79,275.264L66.262,270.732L67.789,266.04L69.362,261.209L70.972,256.258L72.612,251.207L73.44,248.651L74.273,246.078L75.109,243.491L75.947,240.891L76.787,238.282L77.627,235.666L78.466,233.046L79.303,230.424L80.138,227.803L80.969,225.185L81.795,222.573L82.615,219.97L83.428,217.378L84.233,214.8L85.03,212.238L85.816,209.695L86.591,207.174L87.355,204.675L87.732,203.437L88.105,202.206L88.475,200.981L88.841,199.764L89.204,198.555L89.562,197.355L89.917,196.163L90.267,194.98L90.613,193.806L90.955,192.642L91.292,191.488L91.624,190.345L91.952,189.211L92.275,188.089L92.592,186.978L92.905,185.879L93.212,184.792L93.513,183.717L93.809,182.655L94.099,181.605L94.384,180.569L94.662,179.547L94.934,178.539L95.203,177.535L95.323,177.088L95.453,176.619L95.588,176.137L95.728,175.644L95.875,175.138L96.027,174.62L96.184,174.091L96.347,173.55L96.515,172.997L96.689,172.433L96.868,171.858L97.051,171.273L97.24,170.676L97.434,170.07L97.632,169.453L97.835,168.826L98.042,168.189L98.254,167.541L98.69,166.224L99.143,164.87L99.611,163.484L100.094,162.067L100.591,160.621L101.1,159.149L101.621,157.653L102.154,156.136L102.696,154.598L103.248,153.044L103.808,151.474L104.376,149.89L104.95,148.297L105.529,146.694L106.114,145.086L106.702,143.473L107.293,141.858L107.886,140.244L108.48,138.633L109.074,137.026L109.667,135.427L110.259,133.837L110.848,132.259L111.433,130.695L112.014,129.147L112.589,127.618L113.158,126.109L113.72,124.624L114.274,123.164L114.819,121.731L115.354,120.328L115.878,118.957L116.39,117.621L116.889,116.321L117.375,115.06L117.846,113.839L118.302,112.663L118.741,111.531L119.163,110.447L119.567,109.414L119.953,108.432L120.318,107.505L120.662,106.633L120.985,105.821L121.286,105.068L121.563,104.377L121.817,103.75L122.047,103.187L122.254,102.688L122.437,102.251L122.597,101.88L122.678,101.697L122.756,101.525L122.84,101.344L122.95,101.122L123.103,100.838L123.3,100.509L123.427,100.325L124.013,99.584L124.021,99.576L124.486,99.097L125.005,98.639L125.574,98.205L125.577,98.203L126.319,97.718L127.124,97.273L127.986,96.871L128.899,96.515L129.857,96.207L129.859,96.207L131.027,95.911L132.236,95.688L133.474,95.539L134.73,95.465L135.991,95.468ZM148.161,102.637L148.16,102.627L148.157,102.617L148.161,102.637Z" style="fill:rgb(206,70,70);"/>
    </g>
    <g transform="matrix(0.61238,0,0,1,77.1842,11.8863)">
        <path d="M197.886,213.393L198.455,213.4L199.024,213.411L199.592,213.426L200.158,213.445L200.724,213.468L201.289,213.494L201.853,213.524L202.415,213.558L202.976,213.595L203.537,213.636L204.097,213.681L204.654,213.729L205.21,213.781L205.766,213.836L206.319,213.895L206.872,213.957L207.423,214.023L207.972,214.093L208.52,214.165L209.067,214.241L209.611,214.321L210.154,214.404L210.695,214.49L211.234,214.579L211.773,214.672L212.308,214.768L212.842,214.868L213.375,214.97L213.905,215.076L214.433,215.185L214.959,215.298L215.484,215.413L216.006,215.532L216.526,215.654L217.044,215.779L217.56,215.907L218.074,216.038L218.585,216.172L219.093,216.309L219.6,216.45L220.105,216.593L220.606,216.74L221.106,216.889L221.603,217.042L222.097,217.198L222.589,217.356L223.078,217.518L223.565,217.683L224.049,217.85L224.53,218.021L225.008,218.194L225.484,218.371L225.957,218.55L226.427,218.732L226.894,218.917L227.358,219.106L227.819,219.297L228.276,219.491L228.677,219.664L229.533,220.068L230.33,220.513L231.065,220.998L231.733,221.517L232.327,222.069L232.846,222.649L233.284,223.254L233.64,223.878L233.91,224.518L234.092,225.17L234.187,225.828L234.192,226.49L234.108,227.149L233.935,227.802L233.675,228.443L233.329,229.07L232.9,229.676L232.39,230.259L231.804,230.815L231.145,231.338L230.418,231.827L229.627,232.277L228.778,232.686L227.877,233.05L226.929,233.367L225.943,233.636L224.923,233.853L223.878,234.019L222.814,234.131L221.738,234.188L220.658,234.191L219.582,234.14L218.516,234.034L217.468,233.875L216.445,233.663L215.454,233.4L214.502,233.088L213.596,232.729L213.304,232.603L213.064,232.502L212.822,232.401L212.579,232.303L212.333,232.205L212.085,232.109L211.835,232.014L211.584,231.921L211.33,231.829L211.075,231.738L210.818,231.649L210.56,231.562L210.3,231.476L210.038,231.392L209.775,231.309L209.51,231.228L209.244,231.148L208.977,231.07L208.708,230.993L208.438,230.919L208.166,230.845L207.894,230.774L207.621,230.704L207.347,230.636L207.071,230.569L206.795,230.505L206.517,230.442L206.24,230.38L205.961,230.321L205.68,230.263L205.4,230.207L205.119,230.153L204.838,230.101L204.556,230.05L204.274,230.001L203.99,229.954L203.707,229.909L203.423,229.866L203.139,229.824L202.855,229.785L202.571,229.747L202.286,229.711L202.003,229.677L201.718,229.645L201.433,229.615L201.149,229.587L200.865,229.56L200.581,229.536L200.298,229.513L200.014,229.492L199.731,229.473L199.448,229.456L199.166,229.441L198.885,229.428L198.603,229.417L198.322,229.408L198.042,229.4L197.763,229.395L197.484,229.391L197.206,229.39L196.928,229.39L196.652,229.392L196.376,229.396L196.101,229.402L195.827,229.41L195.536,229.42L195.417,229.425L195.281,229.431L195.145,229.438L195.01,229.445L194.875,229.452L194.74,229.46L194.605,229.469L194.472,229.477L194.337,229.487L194.202,229.497L194.069,229.507L193.935,229.518L193.802,229.529L193.67,229.541L193.538,229.553L193.405,229.566L193.272,229.579L193.141,229.592L193.01,229.606L192.878,229.621L192.748,229.636L192.617,229.652L192.486,229.668L192.357,229.684L192.227,229.701L192.097,229.718L191.97,229.736L191.84,229.755L191.711,229.773L191.583,229.793L191.455,229.812L191.329,229.832L191.201,229.853L191.073,229.874L190.947,229.896L190.821,229.918L190.695,229.941L190.569,229.964L190.443,229.987L190.319,230.011L190.194,230.036L190.068,230.061L189.945,230.086L189.821,230.112L189.697,230.138L189.574,230.165L189.451,230.193L189.328,230.22L189.206,230.249L189.083,230.278L188.961,230.307L188.841,230.336L188.72,230.367L188.598,230.398L188.477,230.429L188.357,230.46L188.237,230.493L188.116,230.526L187.998,230.559L187.879,230.592L187.759,230.627L187.641,230.662L187.523,230.697L187.405,230.732L187.287,230.769L187.169,230.806L187.052,230.843L186.935,230.881L186.818,230.919L186.702,230.958L186.585,230.998L186.469,231.038L186.354,231.078L186.239,231.119L186.123,231.161L186.008,231.203L185.894,231.245L185.78,231.288L185.666,231.332L185.551,231.377L185.437,231.422L185.324,231.467L185.211,231.513L185.098,231.559L184.986,231.606L184.874,231.654L184.76,231.703L184.649,231.752L184.538,231.801L184.425,231.852L184.313,231.903L184.203,231.954L184.092,232.006L183.981,232.058L183.872,232.111L183.76,232.166L183.65,232.22L183.541,232.275L183.432,232.331L183.322,232.388L183.213,232.445L183.104,232.503L182.995,232.561L182.887,232.62L182.778,232.68L182.671,232.741L182.563,232.802L182.455,232.864L182.348,232.927L182.241,232.99L182.133,233.054L182.027,233.119L181.921,233.184L181.814,233.251L181.708,233.318L181.602,233.386L181.496,233.454L181.391,233.524L181.285,233.594L181.181,233.665L181.076,233.736L180.972,233.809L180.867,233.882L180.765,233.955L180.618,234.061L180.471,234.169L180.323,234.279L180.174,234.391L180.026,234.504L179.876,234.621L179.725,234.74L179.575,234.86L179.424,234.982L179.272,235.107L179.121,235.233L178.97,235.361L178.818,235.491L178.666,235.623L178.515,235.757L178.363,235.892L178.212,236.03L178.061,236.168L177.911,236.309L177.76,236.451L177.61,236.596L177.461,236.741L177.313,236.887L177.165,237.036L177.017,237.186L176.871,237.338L176.725,237.49L176.58,237.645L176.436,237.8L176.293,237.957L176.152,238.115L176.01,238.275L175.871,238.435L175.733,238.597L175.595,238.76L175.459,238.924L175.325,239.089L175.191,239.256L175.059,239.423L174.929,239.591L174.8,239.76L174.673,239.931L174.547,240.102L174.423,240.274L174.3,240.447L174.18,240.62L174.061,240.795L173.944,240.97L173.828,241.146L173.715,241.322L173.604,241.5L173.494,241.678L173.387,241.856L173.281,242.035L173.178,242.215L173.077,242.395L172.978,242.575L172.881,242.756L172.786,242.938L172.693,243.119L172.603,243.302L172.515,243.484L172.43,243.667L172.347,243.85L172.266,244.033L172.187,244.217L172.112,244.4L172.038,244.584L171.967,244.768L171.899,244.952L171.833,245.136L171.77,245.32L171.709,245.504L171.651,245.689L171.596,245.873L171.543,246.057L171.493,246.241L171.445,246.425L171.401,246.609L171.359,246.792L171.32,246.975L171.283,247.159L171.25,247.342L171.219,247.524L171.191,247.707L171.166,247.889L171.144,248.071L171.124,248.252L171.108,248.433L171.094,248.614L171.083,248.795L171.076,248.975L171.071,249.154L171.069,249.333L171.07,249.512L171.074,249.691L171.08,249.869L171.09,250.046L171.103,250.223L171.119,250.399L171.138,250.575L171.16,250.751L171.185,250.926L171.213,251.1L171.243,251.274L171.278,251.448L171.315,251.621L171.355,251.793L171.401,251.977L171.421,252.051L171.444,252.137L171.469,252.223L171.494,252.308L171.52,252.393L171.547,252.478L171.574,252.564L171.603,252.649L171.632,252.733L171.662,252.818L171.692,252.903L171.724,252.988L171.756,253.072L171.789,253.156L171.824,253.241L171.858,253.325L171.894,253.408L171.93,253.492L171.968,253.576L172.006,253.66L172.045,253.744L172.084,253.827L172.125,253.91L172.167,253.994L172.209,254.077L172.252,254.16L172.296,254.243L172.341,254.326L172.387,254.409L172.434,254.492L172.481,254.574L172.53,254.657L172.579,254.74L172.63,254.822L172.681,254.905L172.733,254.987L172.786,255.069L172.832,255.139L172.893,255.23L172.946,255.307L173.001,255.382L173.056,255.456L173.112,255.528L173.17,255.6L173.228,255.67L173.287,255.739L173.347,255.808L173.408,255.875L173.47,255.941L173.533,256.007L173.597,256.071L173.662,256.135L173.728,256.198L173.796,256.261L173.864,256.323L173.933,256.384L174.004,256.445L174.077,256.505L174.15,256.565L174.225,256.624L174.301,256.683L174.378,256.741L174.457,256.8L174.538,256.858L174.62,256.916L174.703,256.973L174.787,257.03L174.874,257.086L174.962,257.143L175.052,257.199L175.143,257.255L175.236,257.311L175.331,257.367L175.427,257.422L175.525,257.477L175.626,257.533L175.728,257.588L175.832,257.643L175.937,257.698L176.043,257.752L176.153,257.806L176.264,257.86L176.377,257.914L176.491,257.968L176.608,258.022L176.726,258.075L176.847,258.128L176.969,258.182L177.093,258.234L177.218,258.287L177.346,258.339L177.476,258.392L177.607,258.444L177.74,258.495L177.875,258.547L178.012,258.598L178.15,258.649L178.29,258.699L178.433,258.75L178.576,258.8L178.721,258.85L178.868,258.9L179.017,258.949L179.167,258.998L179.318,259.046L179.471,259.095L179.626,259.143L179.783,259.191L179.941,259.238L180.1,259.285L180.26,259.331L180.422,259.378L180.586,259.424L180.75,259.47L180.916,259.515L181.083,259.56L181.251,259.604L181.42,259.648L181.591,259.693L181.763,259.736L181.935,259.779L182.094,259.818L182.46,259.906L182.815,259.989L183.172,260.07L183.532,260.151L183.896,260.229L184.262,260.306L184.631,260.382L185.001,260.457L185.373,260.53L185.748,260.602L186.123,260.673L186.5,260.742L186.877,260.811L187.255,260.879L187.634,260.945L188.006,261.01L188.777,261.142L189.538,261.269L190.282,261.393L190.518,261.432L190.74,261.468L190.964,261.504L191.191,261.539L191.416,261.573L191.643,261.607L191.87,261.641L192.099,261.673L192.329,261.706L192.558,261.738L192.789,261.769L193.009,261.798L193.488,261.86L193.958,261.918L194.432,261.974L194.909,262.028L195.39,262.081L195.874,262.131L196.362,262.18L196.853,262.227L197.348,262.273L197.846,262.317L198.349,262.359L198.854,262.399L199.363,262.439L199.876,262.476L200.392,262.512L200.911,262.547L201.434,262.581L201.961,262.613L202.491,262.645L203.024,262.675L203.56,262.704L204.1,262.731L204.643,262.758L205.19,262.784L205.74,262.81L206.293,262.834L206.849,262.858L207.403,262.881L208.538,262.926L209.679,262.968L210.831,263.01L213.177,263.091L214.364,263.133L215.565,263.176L216.777,263.22L217.993,263.267L218.614,263.292L219.232,263.318L219.853,263.344L220.478,263.372L221.104,263.401L221.733,263.431L222.365,263.463L222.999,263.496L223.636,263.53L224.276,263.567L224.918,263.605L225.563,263.644L226.21,263.686L226.859,263.73L227.512,263.776L228.166,263.824L228.822,263.875L229.482,263.928L230.143,263.984L230.807,264.042L231.473,264.104L232.142,264.168L232.812,264.235L233.484,264.305L234.159,264.379L234.835,264.456L235.514,264.536L236.195,264.62L236.863,264.706L237.218,264.753L237.561,264.8L237.903,264.847L238.246,264.895L238.59,264.944L238.934,264.995L239.279,265.046L239.623,265.098L239.968,265.152L240.314,265.207L240.659,265.262L241.005,265.319L241.353,265.377L241.699,265.436L242.046,265.496L242.394,265.557L242.741,265.62L243.089,265.684L243.438,265.749L243.787,265.815L244.135,265.882L244.484,265.951L244.834,266.021L245.182,266.092L245.532,266.164L245.882,266.238L246.232,266.313L246.582,266.39L246.932,266.468L247.283,266.547L247.633,266.628L247.983,266.709L248.334,266.793L248.684,266.877L249.035,266.964L249.386,267.051L249.737,267.14L250.087,267.231L250.437,267.323L250.788,267.416L251.139,267.511L251.489,267.607L251.839,267.705L252.189,267.805L252.539,267.906L252.89,268.008L253.239,268.112L253.588,268.218L253.937,268.325L254.286,268.434L254.635,268.544L254.983,268.656L255.332,268.77L255.679,268.885L256.027,269.001L256.374,269.12L256.721,269.24L257.067,269.362L257.414,269.485L257.759,269.61L258.105,269.737L258.449,269.865L258.793,269.995L259.136,270.126L259.479,270.26L259.823,270.395L260.165,270.532L260.506,270.67L260.847,270.81L261.188,270.952L261.527,271.096L261.867,271.241L262.205,271.388L262.542,271.537L262.88,271.687L263.216,271.84L263.552,271.994L263.887,272.15L264.221,272.307L264.554,272.466L264.886,272.627L265.218,272.79L265.55,272.955L265.88,273.121L266.21,273.289L266.538,273.459L266.865,273.63L267.193,273.804L267.518,273.979L267.843,274.156L268.167,274.335L268.491,274.515L268.813,274.698L269.141,274.886L269.393,275.032L269.648,275.183L269.901,275.336L270.153,275.49L270.402,275.645L270.648,275.802L270.892,275.959L271.132,276.117L271.373,276.277L271.61,276.438L271.844,276.599L272.077,276.762L272.308,276.926L272.535,277.09L272.762,277.256L272.986,277.423L273.208,277.59L273.428,277.759L273.645,277.928L273.862,278.099L274.076,278.27L274.287,278.442L274.497,278.615L274.706,278.79L274.912,278.965L275.116,279.14L275.319,279.317L275.52,279.495L275.719,279.673L275.916,279.852L276.111,280.032L276.305,280.214L276.497,280.395L276.686,280.577L276.876,280.761L277.063,280.945L277.248,281.129L277.432,281.315L277.613,281.501L277.794,281.689L277.973,281.876L278.15,282.065L278.326,282.255L278.5,282.444L278.673,282.636L278.844,282.827L279.014,283.019L279.182,283.212L279.349,283.406L279.514,283.601L279.678,283.796L279.84,283.992L280.001,284.188L280.161,284.386L280.319,284.583L280.476,284.782L280.632,284.982L280.786,285.181L280.938,285.382L281.09,285.583L281.24,285.785L281.389,285.988L281.536,286.191L281.682,286.395L281.827,286.6L281.971,286.805L282.113,287.01L282.254,287.217L282.394,287.424L282.532,287.631L282.669,287.839L282.805,288.048L282.94,288.258L283.073,288.468L283.205,288.678L283.337,288.89L283.466,289.101L283.595,289.314L283.722,289.526L283.849,289.74L283.974,289.954L284.101,290.175L284.341,290.599L284.581,291.032L284.815,291.467L285.045,291.904L285.271,292.343L285.491,292.784L285.708,293.227L285.919,293.672L286.126,294.118L286.329,294.567L286.527,295.018L286.721,295.47L286.91,295.923L287.095,296.379L287.275,296.836L287.451,297.294L287.623,297.754L287.79,298.216L287.952,298.679L288.111,299.143L288.265,299.609L288.414,300.076L288.56,300.544L288.7,301.013L288.837,301.484L288.969,301.955L289.097,302.428L289.22,302.902L289.339,303.376L289.453,303.852L289.564,304.328L289.67,304.805L289.771,305.283L289.868,305.762L289.961,306.241L290.049,306.721L290.133,307.202L290.212,307.683L290.287,308.165L290.358,308.647L290.424,309.129L290.486,309.612L290.543,310.095L290.596,310.578L290.644,311.062L290.688,311.546L290.727,312.029L290.761,312.513L290.792,312.997L290.817,313.481L290.838,313.964L290.855,314.448L290.866,314.932L290.873,315.414L290.876,315.897L290.874,316.38L290.867,316.862L290.855,317.344L290.839,317.825L290.818,318.306L290.792,318.786L290.762,319.266L290.726,319.745L290.686,320.223L290.641,320.701L290.591,321.178L290.536,321.654L290.476,322.129L290.411,322.603L290.341,323.077L290.266,323.549L290.186,324.02L290.101,324.491L290.01,324.96L289.915,325.428L289.814,325.895L289.709,326.353L289.653,326.592L289.596,326.824L289.539,327.056L289.479,327.287L289.419,327.518L289.357,327.748L289.294,327.979L289.229,328.209L289.164,328.438L289.096,328.667L289.028,328.897L288.957,329.125L288.886,329.353L288.813,329.581L288.739,329.808L288.663,330.035L288.586,330.261L288.507,330.488L288.427,330.713L288.345,330.939L288.25,331.195L288.154,331.451L288.055,331.706L287.955,331.96L287.853,332.213L287.749,332.466L287.644,332.717L287.537,332.968L287.427,333.218L287.317,333.467L287.204,333.715L287.09,333.962L286.974,334.209L286.856,334.454L286.737,334.698L286.616,334.942L286.493,335.185L286.368,335.427L286.242,335.668L286.114,335.908L285.984,336.148L285.853,336.386L285.72,336.624L285.585,336.86L285.449,337.096L285.31,337.331L285.17,337.566L285.029,337.798L284.886,338.031L284.741,338.262L284.594,338.492L284.446,338.723L284.296,338.951L284.145,339.179L283.991,339.406L283.836,339.632L283.68,339.857L283.521,340.081L283.362,340.304L283.2,340.527L283.037,340.749L282.873,340.969L282.706,341.189L282.538,341.408L282.369,341.625L282.198,341.842L282.025,342.058L281.851,342.273L281.675,342.487L281.497,342.701L281.318,342.913L281.138,343.124L280.956,343.335L280.772,343.545L280.587,343.753L280.4,343.961L280.212,344.168L280.022,344.373L279.831,344.578L279.638,344.782L279.444,344.985L279.247,345.188L279.05,345.388L278.852,345.588L278.651,345.788L278.45,345.986L278.247,346.183L278.042,346.379L277.835,346.575L277.628,346.769L277.419,346.963L277.208,347.156L276.997,347.347L276.784,347.538L276.569,347.727L276.353,347.916L276.135,348.104L275.917,348.29L275.697,348.476L275.475,348.661L275.252,348.845L275.028,349.028L274.803,349.209L274.576,349.39L274.347,349.571L274.118,349.749L273.887,349.927L273.655,350.104L273.422,350.28L273.187,350.455L272.951,350.629L272.714,350.802L272.476,350.974L272.236,351.146L271.996,351.316L271.753,351.485L271.51,351.653L271.265,351.82L271.02,351.986L270.774,352.151L270.525,352.316L270.276,352.479L270.026,352.641L269.775,352.802L269.522,352.963L269.269,353.122L269.014,353.28L268.757,353.438L268.501,353.594L268.243,353.749L267.983,353.904L267.723,354.057L267.462,354.21L267.2,354.361L266.937,354.511L266.672,354.661L266.407,354.81L266.141,354.957L265.873,355.103L265.605,355.249L265.336,355.394L265.066,355.537L264.795,355.68L264.522,355.822L264.249,355.962L263.975,356.102L263.7,356.241L263.424,356.378L263.147,356.515L262.87,356.651L262.592,356.785L262.312,356.92L262.031,357.053L261.75,357.185L261.469,357.315L261.186,357.446L260.902,357.575L260.618,357.703L260.332,357.83L260.046,357.957L259.76,358.082L259.472,358.206L259.183,358.33L258.895,358.452L258.604,358.574L258.314,358.694L258.023,358.814L257.73,358.933L257.437,359.051L257.143,359.167L256.85,359.283L256.555,359.398L256.259,359.512L255.962,359.626L255.666,359.738L255.368,359.849L255.069,359.96L254.771,360.069L254.471,360.178L254.171,360.285L253.871,360.392L253.569,360.498L253.267,360.603L252.965,360.707L252.661,360.81L252.357,360.913L252.053,361.014L251.748,361.115L251.442,361.215L251.136,361.313L250.83,361.411L250.523,361.508L250.215,361.605L249.907,361.7L249.598,361.794L249.289,361.888L248.98,361.981L248.67,362.073L248.359,362.164L248.035,362.257L247.424,362.432L246.799,362.606L246.171,362.777L245.542,362.945L244.912,363.11L244.279,363.271L243.645,363.429L243.01,363.584L242.373,363.735L241.735,363.884L241.095,364.029L240.453,364.171L239.812,364.31L239.168,364.446L238.523,364.579L237.877,364.709L237.23,364.836L236.583,364.96L235.933,365.081L235.283,365.199L234.633,365.314L233.98,365.427L233.327,365.536L232.674,365.642L232.02,365.746L231.364,365.847L230.708,365.945L230.052,366.041L229.395,366.134L228.737,366.224L228.079,366.311L227.42,366.396L226.762,366.478L226.102,366.557L225.442,366.634L224.781,366.708L224.121,366.78L223.46,366.849L222.798,366.916L222.136,366.98L221.475,367.042L220.813,367.101L220.151,367.158L219.488,367.213L218.826,367.265L218.164,367.314L217.502,367.362L216.84,367.407L216.178,367.45L215.516,367.49L214.854,367.528L214.192,367.564L213.531,367.598L212.869,367.63L212.208,367.659L211.548,367.686L210.887,367.711L210.227,367.734L209.568,367.755L208.908,367.773L208.249,367.79L207.591,367.804L206.933,367.817L206.276,367.827L205.619,367.836L204.963,367.842L204.308,367.846L203.653,367.849L202.999,367.849L202.346,367.848L201.694,367.845L201.042,367.839L200.391,367.832L199.741,367.823L199.092,367.812L198.443,367.8L197.796,367.785L197.15,367.769L196.505,367.751L195.861,367.731L195.217,367.709L194.575,367.686L193.934,367.661L193.295,367.634L192.656,367.606L192.019,367.575L191.383,367.544L190.748,367.51L190.115,367.475L189.483,367.438L188.852,367.4L188.223,367.36L187.595,367.318L186.969,367.275L186.344,367.231L185.72,367.184L185.098,367.137L184.478,367.087L183.86,367.037L183.243,366.984L182.627,366.931L182.014,366.875L181.403,366.819L180.792,366.761L180.184,366.701L179.578,366.64L178.973,366.578L178.371,366.515L177.77,366.449L177.171,366.383L176.575,366.315L175.98,366.246L175.387,366.176L174.796,366.104L174.208,366.031L173.622,365.957L173.037,365.881L172.455,365.804L171.876,365.726L171.297,365.647L170.722,365.566L170.149,365.485L169.579,365.402L169.01,365.318L168.444,365.232L167.88,365.146L167.319,365.058L166.76,364.969L166.204,364.879L165.651,364.788L165.099,364.695L164.55,364.602L164.005,364.507L163.461,364.412L162.92,364.315L162.382,364.217L161.847,364.118L161.314,364.018L160.784,363.917L160.257,363.815L159.733,363.712L159.211,363.608L158.692,363.503L158.176,363.397L157.663,363.289L157.153,363.181L156.645,363.072L156.141,362.961L155.64,362.85L155.142,362.738L154.646,362.624L154.154,362.51L153.664,362.395L153.178,362.279L152.695,362.161L152.215,362.043L151.738,361.924L151.264,361.803L150.793,361.682L150.326,361.56L149.861,361.437L149.4,361.312L148.942,361.187L148.486,361.061L148.035,360.933L147.579,360.803L147.338,360.733L147.087,360.658L146.84,360.583L146.593,360.506L146.347,360.428L146.103,360.35L145.862,360.27L145.62,360.189L145.378,360.107L145.138,360.023L144.898,359.939L144.659,359.853L144.421,359.766L144.183,359.679L143.947,359.59L143.71,359.499L143.473,359.408L143.237,359.315L143.003,359.222L142.769,359.128L142.534,359.032L142.283,358.928L141.833,358.738L141.366,358.537L140.901,358.331L140.436,358.12L139.973,357.905L139.509,357.686L139.046,357.461L138.584,357.233L138.122,357L137.661,356.762L137.2,356.52L136.739,356.273L136.278,356.021L135.818,355.765L135.359,355.505L134.9,355.239L134.442,354.97L133.984,354.695L133.526,354.416L133.07,354.133L132.615,353.845L132.16,353.552L131.706,353.255L131.263,352.959L131.027,352.8L130.802,352.646L130.576,352.491L130.351,352.335L130.126,352.178L129.902,352.02L129.678,351.86L129.454,351.7L129.231,351.538L129.008,351.375L128.785,351.211L128.563,351.046L128.342,350.879L128.12,350.712L127.899,350.543L127.679,350.373L127.46,350.202L127.241,350.03L127.022,349.857L126.803,349.683L126.586,349.507L126.369,349.33L126.152,349.153L125.936,348.974L125.721,348.794L125.506,348.613L125.292,348.43L125.079,348.247L124.866,348.063L124.654,347.877L124.443,347.69L124.232,347.502L124.022,347.313L123.813,347.123L123.605,346.932L123.397,346.739L123.19,346.545L122.984,346.351L122.779,346.155L122.575,345.958L122.372,345.761L122.169,345.561L121.967,345.361L121.767,345.16L121.567,344.957L121.369,344.754L121.171,344.549L120.974,344.343L120.779,344.136L120.584,343.928L120.39,343.719L120.197,343.509L120.006,343.298L119.816,343.086L119.626,342.872L119.438,342.657L119.252,342.441L119.066,342.225L118.881,342.007L118.698,341.788L118.516,341.568L118.335,341.347L118.156,341.125L117.978,340.901L117.801,340.677L117.625,340.451L117.451,340.225L117.278,339.997L117.107,339.769L116.937,339.539L116.768,339.308L116.601,339.076L116.436,338.843L116.272,338.609L116.109,338.374L115.948,338.138L115.789,337.901L115.631,337.663L115.475,337.423L115.32,337.183L115.167,336.942L115.016,336.699L114.866,336.456L114.718,336.211L114.572,335.966L114.428,335.719L114.285,335.471L114.144,335.223L114.006,334.973L113.868,334.723L113.733,334.471L113.6,334.218L113.468,333.965L113.339,333.71L113.211,333.454L113.085,333.197L112.961,332.94L112.84,332.681L112.72,332.422L112.603,332.161L112.487,331.899L112.374,331.636L112.262,331.373L112.153,331.108L112.046,330.843L111.942,330.576L111.839,330.309L111.739,330.041L111.641,329.771L111.545,329.501L111.451,329.23L111.36,328.958L111.271,328.685L111.185,328.411L111.101,328.136L111.019,327.86L110.94,327.583L110.863,327.305L110.789,327.027L110.717,326.748L110.648,326.467L110.581,326.186L110.517,325.904L110.455,325.621L110.396,325.338L110.34,325.053L110.286,324.767L110.235,324.481L110.187,324.194L110.141,323.906L110.098,323.617L110.058,323.328L110.021,323.037L109.986,322.746L109.955,322.454L109.926,322.161L109.9,321.867L109.877,321.573L109.856,321.278L109.839,320.982L109.825,320.685L109.813,320.388L109.805,320.09L109.8,319.791L109.797,319.491L109.798,319.191L109.802,318.89L109.809,318.588L109.819,318.286L109.832,317.983L109.848,317.679L109.868,317.375L109.89,317.069L109.916,316.764L109.945,316.457L109.978,316.15L110.013,315.842L110.052,315.534L110.094,315.225L110.14,314.916L110.188,314.606L110.241,314.295L110.296,313.984L110.355,313.672L110.417,313.36L110.483,313.047L110.552,312.733L110.625,312.419L110.701,312.105L110.781,311.79L110.864,311.474L110.951,311.158L111.041,310.842L111.135,310.525L111.232,310.207L111.333,309.889L111.438,309.571L111.546,309.252L111.657,308.933L111.773,308.613L111.892,308.293L112.015,307.973L112.141,307.652L112.271,307.33L112.405,307.008L112.532,306.711L112.849,306.079L113.249,305.465L113.731,304.873L114.291,304.308L114.925,303.773L115.63,303.271L116.399,302.808L117.229,302.384L118.112,302.004L119.044,301.67L120.018,301.385L121.027,301.149L122.064,300.966L123.123,300.835L124.195,300.758L125.274,300.736L126.353,300.769L127.423,300.856L128.478,300.997L129.51,301.19L130.513,301.436L131.479,301.731L132.402,302.074L133.276,302.462L134.094,302.893L134.852,303.365L135.543,303.873L136.164,304.414L136.709,304.984L137.175,305.581L137.56,306.198L137.86,306.834L138.073,307.482L138.198,308.139L138.234,308.799L138.181,309.46L138.039,310.115L137.809,310.761L137.703,311.009L137.61,311.232L137.52,311.454L137.433,311.676L137.348,311.897L137.266,312.117L137.187,312.337L137.11,312.557L137.036,312.775L136.965,312.993L136.895,313.21L136.829,313.427L136.765,313.643L136.704,313.859L136.645,314.074L136.588,314.288L136.534,314.502L136.482,314.715L136.433,314.928L136.386,315.14L136.342,315.352L136.3,315.563L136.26,315.773L136.223,315.983L136.187,316.192L136.155,316.401L136.124,316.609L136.096,316.817L136.069,317.024L136.046,317.23L136.024,317.436L136.004,317.641L135.987,317.846L135.972,318.05L135.959,318.254L135.948,318.457L135.939,318.66L135.933,318.862L135.928,319.063L135.925,319.265L135.925,319.465L135.927,319.665L135.93,319.864L135.936,320.064L135.943,320.262L135.953,320.46L135.964,320.657L135.978,320.854L135.993,321.05L136.011,321.246L136.03,321.441L136.051,321.636L136.074,321.83L136.099,322.023L136.126,322.216L136.154,322.409L136.185,322.601L136.217,322.793L136.251,322.984L136.287,323.174L136.324,323.364L136.364,323.554L136.405,323.743L136.448,323.931L136.492,324.119L136.539,324.306L136.587,324.493L136.636,324.68L136.688,324.866L136.741,325.051L136.796,325.236L136.852,325.42L136.91,325.603L136.969,325.787L137.031,325.969L137.094,326.152L137.158,326.333L137.224,326.514L137.291,326.694L137.36,326.874L137.431,327.054L137.503,327.233L137.577,327.411L137.652,327.589L137.728,327.766L137.806,327.943L137.885,328.119L137.966,328.295L138.049,328.47L138.133,328.644L138.218,328.818L138.304,328.991L138.392,329.164L138.481,329.336L138.572,329.508L138.664,329.679L138.757,329.849L138.852,330.019L138.948,330.188L139.045,330.357L139.143,330.525L139.243,330.693L139.344,330.86L139.446,331.026L139.549,331.192L139.654,331.357L139.76,331.521L139.867,331.685L139.975,331.848L140.084,332.011L140.195,332.173L140.306,332.334L140.419,332.495L140.532,332.655L140.647,332.814L140.763,332.973L140.88,333.131L140.998,333.288L141.117,333.445L141.237,333.601L141.358,333.756L141.48,333.911L141.603,334.065L141.727,334.218L141.852,334.371L141.977,334.523L142.104,334.675L142.232,334.825L142.36,334.975L142.489,335.124L142.619,335.273L142.75,335.42L142.882,335.567L143.015,335.714L143.148,335.859L143.282,336.004L143.416,336.148L143.552,336.291L143.688,336.434L143.825,336.575L143.963,336.716L144.101,336.856L144.24,336.996L144.38,337.135L144.52,337.272L144.66,337.409L144.802,337.546L144.944,337.681L145.086,337.816L145.229,337.95L145.373,338.083L145.517,338.215L145.661,338.347L145.806,338.477L145.952,338.607L146.097,338.736L146.243,338.863L146.39,338.991L146.537,339.117L146.684,339.242L146.832,339.367L146.98,339.491L147.128,339.613L147.277,339.735L147.426,339.856L147.574,339.976L147.723,340.095L147.873,340.214L148.023,340.331L148.172,340.448L148.322,340.563L148.472,340.678L148.622,340.791L148.772,340.904L148.923,341.016L149.073,341.127L149.223,341.236L149.373,341.345L149.523,341.453L149.674,341.56L149.824,341.666L149.974,341.771L150.124,341.875L150.273,341.978L150.423,342.08L150.563,342.174L150.87,342.379L151.167,342.574L151.463,342.764L151.758,342.951L152.051,343.133L152.342,343.31L152.631,343.483L152.918,343.652L153.202,343.816L153.483,343.976L153.762,344.131L154.037,344.282L154.309,344.427L154.577,344.568L154.842,344.704L155.102,344.836L155.358,344.962L155.608,345.083L155.853,345.2L156.093,345.311L156.327,345.417L156.555,345.518L156.776,345.613L157.006,345.71L157.094,345.746L157.195,345.788L157.297,345.829L157.395,345.868L157.49,345.905L157.583,345.941L157.675,345.976L157.764,346.01L157.851,346.042L157.935,346.072L158.016,346.101L158.095,346.129L158.171,346.156L158.244,346.18L158.314,346.204L158.383,346.227L158.447,346.247L158.507,346.266L158.564,346.284L158.618,346.3L158.667,346.315L158.722,346.331L159.025,346.418L159.341,346.507L159.66,346.595L159.985,346.684L160.315,346.773L160.649,346.862L160.987,346.95L161.33,347.039L161.677,347.127L162.028,347.214L162.384,347.302L162.744,347.389L163.109,347.477L163.477,347.563L163.849,347.65L164.225,347.736L164.605,347.821L164.989,347.907L165.376,347.991L165.768,348.076L166.162,348.159L166.561,348.243L166.963,348.326L167.368,348.408L167.777,348.489L168.19,348.571L168.606,348.651L169.025,348.731L169.447,348.81L169.872,348.889L170.301,348.967L170.732,349.044L171.167,349.12L171.605,349.196L172.045,349.271L172.488,349.345L172.935,349.419L173.383,349.491L173.835,349.563L174.29,349.634L174.746,349.705L175.205,349.774L175.667,349.842L176.132,349.91L176.599,349.976L177.069,350.042L177.539,350.107L178.014,350.171L178.49,350.234L178.967,350.295L179.448,350.356L179.931,350.416L180.415,350.475L180.902,350.533L181.39,350.589L181.88,350.645L182.372,350.7L182.866,350.753L183.362,350.805L183.859,350.857L184.358,350.907L184.859,350.956L185.36,351.003L185.864,351.05L186.37,351.096L186.876,351.14L187.384,351.183L187.893,351.225L188.404,351.265L188.916,351.304L189.428,351.342L189.942,351.379L190.458,351.415L190.974,351.449L191.491,351.482L192.009,351.513L192.528,351.543L193.049,351.572L193.569,351.6L194.09,351.626L194.613,351.651L195.136,351.674L195.659,351.696L196.183,351.716L196.708,351.735L197.233,351.753L197.758,351.769L198.285,351.784L198.811,351.797L199.338,351.809L199.865,351.819L200.392,351.828L200.919,351.835L201.447,351.841L201.974,351.845L202.502,351.848L203.03,351.849L203.557,351.849L204.085,351.847L204.612,351.843L205.139,351.838L205.665,351.831L206.192,351.823L206.719,351.813L207.245,351.802L207.77,351.788L208.295,351.774L208.819,351.757L209.344,351.739L209.867,351.719L210.389,351.698L210.912,351.674L211.433,351.65L211.953,351.623L212.473,351.595L212.992,351.565L213.51,351.533L214.027,351.5L214.543,351.465L215.058,351.428L215.572,351.389L216.085,351.349L216.596,351.307L217.106,351.263L217.615,351.217L218.123,351.17L218.63,351.121L219.135,351.07L219.639,351.017L220.141,350.963L220.642,350.906L221.141,350.848L221.638,350.788L222.134,350.726L222.628,350.663L223.121,350.598L223.612,350.53L224.101,350.461L224.588,350.391L225.073,350.318L225.557,350.243L226.038,350.167L226.518,350.089L226.995,350.009L227.47,349.927L227.944,349.843L228.415,349.758L228.883,349.67L229.35,349.581L229.815,349.49L230.278,349.397L230.737,349.302L231.195,349.205L231.651,349.107L232.103,349.006L232.554,348.904L233.002,348.8L233.447,348.694L233.891,348.586L234.331,348.476L234.768,348.364L235.204,348.251L235.637,348.135L236.067,348.018L236.494,347.899L236.932,347.774L237.13,347.716L237.341,347.655L237.551,347.593L237.76,347.53L237.969,347.467L238.177,347.403L238.384,347.339L238.591,347.274L238.796,347.209L239.002,347.144L239.206,347.078L239.409,347.011L239.613,346.944L239.815,346.877L240.016,346.809L240.217,346.741L240.417,346.672L240.617,346.602L240.816,346.533L241.014,346.462L241.211,346.391L241.407,346.32L241.604,346.248L241.798,346.176L241.993,346.104L242.187,346.03L242.379,345.957L242.571,345.883L242.763,345.808L242.955,345.732L243.144,345.657L243.333,345.581L243.521,345.504L243.71,345.427L243.897,345.349L244.082,345.271L244.269,345.193L244.453,345.114L244.637,345.034L244.821,344.954L245.003,344.873L245.185,344.792L245.367,344.71L245.546,344.629L245.726,344.546L245.905,344.463L246.084,344.379L246.261,344.295L246.436,344.211L246.613,344.125L246.789,344.039L246.963,343.953L247.137,343.866L247.309,343.779L247.482,343.691L247.653,343.603L247.823,343.515L247.993,343.425L248.163,343.335L248.331,343.245L248.499,343.154L248.665,343.062L248.832,342.97L248.998,342.878L249.161,342.785L249.326,342.691L249.489,342.597L249.652,342.502L249.814,342.406L249.974,342.311L250.134,342.214L250.294,342.117L250.452,342.02L250.61,341.922L250.767,341.823L250.924,341.724L251.08,341.624L251.235,341.523L251.389,341.422L251.542,341.321L251.695,341.218L251.848,341.115L251.999,341.012L252.149,340.908L252.298,340.803L252.448,340.698L252.596,340.592L252.743,340.486L252.89,340.379L253.036,340.271L253.181,340.163L253.325,340.054L253.47,339.944L253.613,339.833L253.755,339.722L253.896,339.611L254.037,339.499L254.177,339.386L254.316,339.272L254.455,339.158L254.592,339.043L254.729,338.928L254.866,338.811L255.001,338.695L255.135,338.577L255.269,338.459L255.402,338.34L255.535,338.22L255.667,338.099L255.797,337.978L255.928,337.856L256.057,337.734L256.185,337.611L256.313,337.487L256.44,337.362L256.566,337.237L256.691,337.11L256.816,336.983L256.94,336.856L257.063,336.727L257.185,336.598L257.307,336.468L257.427,336.337L257.547,336.205L257.666,336.073L257.785,335.94L257.902,335.806L258.018,335.671L258.134,335.536L258.249,335.399L258.363,335.262L258.477,335.124L258.589,334.985L258.701,334.845L258.811,334.705L258.922,334.564L259.031,334.421L259.139,334.279L259.246,334.134L259.353,333.99L259.458,333.844L259.563,333.698L259.667,333.55L259.77,333.402L259.872,333.253L259.974,333.103L260.074,332.952L260.174,332.8L260.272,332.648L260.37,332.494L260.467,332.34L260.563,332.184L260.658,332.028L260.752,331.87L260.845,331.712L260.937,331.553L261.028,331.393L261.118,331.232L261.207,331.07L261.296,330.907L261.383,330.743L261.47,330.578L261.555,330.413L261.639,330.246L261.722,330.078L261.805,329.909L261.886,329.739L261.967,329.569L262.046,329.397L262.124,329.224L262.202,329.05L262.278,328.876L262.353,328.7L262.427,328.523L262.5,328.346L262.572,328.167L262.643,327.987L262.713,327.806L262.782,327.624L262.85,327.44L262.907,327.281L262.964,327.12L263.021,326.959L263.076,326.797L263.131,326.633L263.184,326.469L263.237,326.304L263.289,326.138L263.34,325.972L263.39,325.805L263.44,325.636L263.488,325.467L263.536,325.298L263.583,325.128L263.629,324.956L263.674,324.784L263.718,324.612L263.761,324.439L263.803,324.265L263.843,324.097L263.924,323.739L264.001,323.385L264.074,323.029L264.143,322.671L264.208,322.31L264.27,321.947L264.328,321.581L264.382,321.214L264.433,320.845L264.479,320.474L264.523,320.101L264.562,319.726L264.597,319.35L264.629,318.971L264.657,318.592L264.682,318.211L264.702,317.829L264.719,317.446L264.732,317.061L264.741,316.675L264.747,316.289L264.748,315.901L264.746,315.513L264.74,315.123L264.731,314.734L264.718,314.343L264.701,313.952L264.68,313.561L264.656,313.169L264.628,312.777L264.596,312.384L264.56,311.992L264.521,311.599L264.478,311.207L264.432,310.815L264.382,310.422L264.328,310.03L264.271,309.639L264.21,309.247L264.145,308.856L264.077,308.467L264.006,308.077L263.93,307.688L263.852,307.3L263.77,306.913L263.684,306.527L263.595,306.142L263.502,305.758L263.406,305.375L263.307,304.994L263.204,304.614L263.098,304.235L262.989,303.858L262.876,303.482L262.76,303.108L262.641,302.736L262.519,302.366L262.393,301.997L262.264,301.631L262.132,301.267L261.997,300.905L261.859,300.545L261.718,300.187L261.574,299.832L261.427,299.479L261.277,299.129L261.124,298.781L260.968,298.437L260.81,298.095L260.648,297.756L260.484,297.419L260.318,297.086L260.148,296.757L259.976,296.43L259.802,296.106L259.625,295.787L259.442,295.463L259.355,295.313L259.264,295.157L259.172,295.002L259.08,294.848L258.988,294.695L258.894,294.542L258.801,294.392L258.706,294.241L258.611,294.091L258.516,293.944L258.42,293.796L258.323,293.65L258.226,293.504L258.129,293.36L258.031,293.217L257.933,293.075L257.834,292.933L257.735,292.794L257.635,292.655L257.535,292.517L257.435,292.38L257.334,292.244L257.233,292.11L257.131,291.977L257.029,291.844L256.927,291.714L256.825,291.584L256.722,291.455L256.619,291.328L256.516,291.201L256.412,291.076L256.308,290.952L256.204,290.83L256.1,290.709L255.995,290.589L255.89,290.47L255.785,290.352L255.68,290.237L255.575,290.121L255.469,290.008L255.364,289.896L255.258,289.784L255.153,289.675L255.047,289.567L254.941,289.46L254.835,289.355L254.73,289.25L254.625,289.149L254.519,289.047L254.412,288.946L254.308,288.848L254.202,288.751L254.097,288.655L253.992,288.561L253.887,288.469L253.782,288.377L253.677,288.287L253.574,288.199L253.47,288.112L253.366,288.027L253.263,287.943L253.16,287.861L253.058,287.78L252.955,287.7L252.854,287.622L252.753,287.546L252.652,287.471L252.553,287.398L252.452,287.326L252.354,287.256L252.255,287.187L252.156,287.119L252.06,287.054L251.965,286.99L251.868,286.927L251.773,286.865L251.679,286.806L251.586,286.748L251.494,286.691L251.403,286.636L251.312,286.582L251.216,286.527L251.021,286.415L250.821,286.302L250.621,286.19L250.42,286.079L250.22,285.97L250.019,285.862L249.819,285.756L249.619,285.651L249.418,285.547L249.218,285.445L249.018,285.345L248.819,285.246L248.618,285.147L248.418,285.05L248.217,284.954L248.017,284.86L247.818,284.767L247.617,284.675L247.417,284.585L247.218,284.496L247.017,284.407L246.816,284.32L246.616,284.234L246.415,284.149L246.215,284.066L246.014,283.983L245.812,283.901L245.611,283.821L245.411,283.742L245.21,283.664L245.008,283.587L244.805,283.51L244.603,283.435L244.402,283.361L244.199,283.288L243.996,283.215L243.794,283.144L243.59,283.074L243.387,283.005L243.183,282.936L242.979,282.868L242.775,282.802L242.569,282.736L242.365,282.671L242.16,282.607L241.953,282.544L241.747,282.482L241.54,282.42L241.334,282.359L241.126,282.3L240.918,282.24L240.71,282.182L240.501,282.125L240.291,282.068L240.082,282.012L239.871,281.957L239.66,281.902L239.448,281.849L239.237,281.796L239.025,281.744L238.811,281.692L238.598,281.641L238.383,281.591L238.168,281.542L237.953,281.493L237.737,281.445L237.52,281.398L237.303,281.351L237.085,281.305L236.867,281.26L236.647,281.215L236.427,281.171L236.206,281.128L235.985,281.085L235.763,281.043L235.54,281.001L235.317,280.96L235.092,280.92L234.868,280.88L234.642,280.841L234.415,280.803L234.189,280.765L233.961,280.727L233.731,280.691L233.503,280.654L233.273,280.619L233.041,280.584L232.81,280.549L232.577,280.515L232.344,280.482L232.11,280.449L231.875,280.416L231.64,280.385L231.416,280.355L230.927,280.292L230.449,280.233L229.967,280.176L229.482,280.121L228.994,280.067L228.502,280.016L228.007,279.966L227.509,279.919L227.008,279.872L226.503,279.828L225.995,279.785L225.484,279.744L224.97,279.704L224.452,279.666L223.931,279.629L223.407,279.594L222.88,279.56L222.349,279.527L221.816,279.495L221.279,279.465L220.739,279.436L220.196,279.408L219.65,279.38L219.101,279.354L218.549,279.328L217.994,279.304L217.436,279.28L216.875,279.256L216.316,279.234L215.173,279.19L214.024,279.148L212.865,279.106L211.692,279.066L209.321,278.983L208.116,278.94L206.902,278.894L205.685,278.846L205.063,278.82L204.444,278.794L203.823,278.767L203.199,278.738L202.574,278.708L201.945,278.677L201.314,278.644L200.68,278.61L200.044,278.574L199.406,278.537L198.766,278.497L198.122,278.456L197.477,278.413L196.829,278.367L196.179,278.319L195.527,278.269L194.872,278.217L194.216,278.161L193.557,278.104L192.896,278.043L192.233,277.979L191.568,277.913L190.901,277.843L190.232,277.77L189.561,277.694L188.888,277.614L188.214,277.531L187.55,277.445L187.199,277.398L186.86,277.352L186.519,277.305L186.179,277.257L185.839,277.209L185.499,277.159L185.157,277.107L184.815,277.055L184.474,277.002L184.132,276.948L183.788,276.892L183.459,276.838L182.653,276.704L181.811,276.562L180.93,276.412L180.458,276.33L179.984,276.247L179.499,276.16L179.004,276.07L178.5,275.976L177.986,275.88L177.464,275.779L176.933,275.675L176.395,275.567L175.848,275.454L175.295,275.337L174.734,275.216L174.167,275.091L173.593,274.96L173.014,274.824L172.444,274.687L172.136,274.611L171.839,274.537L171.542,274.462L171.244,274.385L170.944,274.307L170.644,274.227L170.342,274.146L170.039,274.063L169.735,273.979L169.431,273.893L169.125,273.806L168.818,273.717L168.51,273.626L168.203,273.533L167.894,273.439L167.585,273.343L167.275,273.245L166.963,273.145L166.652,273.044L166.34,272.94L166.028,272.835L165.715,272.728L165.402,272.618L165.089,272.507L164.775,272.393L164.461,272.278L164.147,272.16L163.833,272.04L163.518,271.918L163.204,271.794L162.891,271.668L162.578,271.539L162.263,271.408L161.95,271.274L161.637,271.138L161.325,271L161.013,270.859L160.702,270.716L160.391,270.57L160.081,270.422L159.772,270.271L159.464,270.118L159.156,269.962L158.85,269.803L158.545,269.642L158.242,269.478L157.94,269.311L157.639,269.142L157.339,268.969L157.041,268.794L156.745,268.616L156.451,268.436L156.159,268.252L155.868,268.066L155.58,267.876L155.294,267.684L155.01,267.489L154.729,267.291L154.45,267.091L154.174,266.887L153.901,266.68L153.63,266.471L153.363,266.259L153.099,266.043L152.838,265.825L152.58,265.605L152.325,265.38L152.074,265.153L151.827,264.924L151.584,264.692L151.344,264.457L151.109,264.219L150.877,263.978L150.649,263.735L150.426,263.489L150.207,263.24L149.993,262.988L149.783,262.734L149.578,262.478L149.377,262.219L149.181,261.958L148.99,261.694L148.804,261.427L148.631,261.171L148.509,260.984L148.397,260.81L148.286,260.635L148.178,260.461L148.071,260.286L147.967,260.111L147.864,259.936L147.764,259.761L147.665,259.586L147.568,259.41L147.473,259.235L147.38,259.06L147.288,258.884L147.199,258.708L147.112,258.533L147.026,258.357L146.942,258.181L146.86,258.005L146.78,257.83L146.702,257.654L146.625,257.478L146.551,257.302L146.478,257.126L146.407,256.951L146.338,256.775L146.27,256.598L146.205,256.423L146.141,256.247L146.079,256.071L146.019,255.896L145.96,255.72L145.903,255.545L145.848,255.369L145.795,255.193L145.743,255.018L145.693,254.843L145.645,254.668L145.595,254.481L145.51,254.142L145.429,253.793L145.354,253.444L145.285,253.095L145.223,252.747L145.168,252.4L145.118,252.053L145.075,251.707L145.038,251.362L145.007,251.017L144.983,250.673L144.963,250.33L144.95,249.988L144.943,249.647L144.941,249.306L144.945,248.967L144.954,248.628L144.969,248.291L144.989,247.954L145.014,247.618L145.044,247.284L145.08,246.95L145.121,246.618L145.166,246.287L145.217,245.957L145.272,245.628L145.332,245.3L145.397,244.974L145.467,244.648L145.541,244.324L145.619,244.001L145.702,243.68L145.789,243.359L145.88,243.04L145.976,242.722L146.076,242.406L146.18,242.091L146.287,241.777L146.399,241.465L146.515,241.154L146.634,240.844L146.757,240.536L146.884,240.229L147.014,239.924L147.149,239.62L147.286,239.317L147.427,239.016L147.571,238.716L147.719,238.418L147.87,238.122L148.024,237.827L148.181,237.533L148.342,237.241L148.505,236.95L148.671,236.661L148.84,236.374L149.013,236.088L149.188,235.803L149.365,235.521L149.546,235.239L149.73,234.959L149.915,234.681L150.104,234.405L150.295,234.13L150.488,233.857L150.684,233.585L150.883,233.315L151.083,233.047L151.287,232.78L151.492,232.515L151.7,232.252L151.909,231.991L152.121,231.731L152.335,231.472L152.551,231.216L152.769,230.961L152.99,230.708L153.211,230.457L153.435,230.207L153.661,229.959L153.889,229.713L154.118,229.469L154.35,229.226L154.583,228.985L154.817,228.746L155.054,228.509L155.292,228.273L155.532,228.04L155.773,227.808L156.015,227.578L156.26,227.35L156.506,227.124L156.753,226.899L157.002,226.677L157.252,226.456L157.504,226.237L157.757,226.02L158.011,225.805L158.267,225.591L158.524,225.38L158.783,225.17L159.043,224.962L159.304,224.757L159.566,224.553L159.831,224.351L160.096,224.151L160.362,223.953L160.629,223.757L160.897,223.564L161.114,223.409L161.331,223.257L161.549,223.106L161.768,222.955L161.989,222.806L162.211,222.659L162.434,222.512L162.658,222.367L162.884,222.222L163.11,222.079L163.338,221.937L163.567,221.796L163.798,221.656L164.029,221.517L164.261,221.38L164.495,221.243L164.73,221.108L164.966,220.974L165.204,220.841L165.442,220.709L165.681,220.578L165.922,220.449L166.163,220.321L166.406,220.194L166.65,220.068L166.894,219.943L167.14,219.819L167.388,219.697L167.634,219.576L167.883,219.456L168.133,219.337L168.384,219.22L168.636,219.103L168.888,218.988L169.141,218.874L169.396,218.761L169.652,218.649L169.907,218.539L170.164,218.43L170.422,218.322L170.681,218.215L170.942,218.109L171.202,218.005L171.463,217.902L171.725,217.8L171.987,217.699L172.251,217.599L172.516,217.501L172.781,217.404L173.047,217.308L173.314,217.213L173.582,217.119L173.849,217.027L174.118,216.936L174.387,216.846L174.657,216.757L174.928,216.67L175.199,216.583L175.471,216.498L175.743,216.415L176.016,216.332L176.291,216.25L176.565,216.17L176.839,216.091L177.114,216.013L177.391,215.936L177.667,215.86L177.943,215.786L178.222,215.713L178.499,215.641L178.776,215.571L179.055,215.501L179.335,215.432L179.615,215.365L179.895,215.299L180.175,215.234L180.456,215.17L180.737,215.108L181.018,215.047L181.3,214.987L181.583,214.928L181.865,214.87L182.148,214.813L182.43,214.758L182.715,214.703L182.998,214.65L183.282,214.598L183.566,214.547L183.851,214.497L184.136,214.449L184.42,214.401L184.705,214.355L184.991,214.31L185.276,214.266L185.562,214.223L185.848,214.181L186.133,214.14L186.421,214.1L186.707,214.062L186.993,214.025L187.28,213.988L187.567,213.953L187.854,213.919L188.141,213.886L188.427,213.855L188.714,213.824L189.002,213.794L189.288,213.765L189.575,213.738L189.862,213.711L190.151,213.686L190.438,213.662L190.725,213.639L191.012,213.616L191.299,213.595L191.586,213.575L191.874,213.556L192.161,213.538L192.448,213.521L192.736,213.505L193.023,213.491L193.31,213.477L193.597,213.464L193.901,213.451L194.457,213.432L195.03,213.415L195.602,213.403L196.174,213.394L196.746,213.39L197.316,213.39L197.886,213.393Z" style="fill:rgb(91,198,163);"/>
    </g>
    <g transform="matrix(1,0,0,1,-6.43301,-7.99569)">
        <path d="M247.052,198.082L247.651,198.084L248.233,198.087L248.798,198.091L249.346,198.096L249.877,198.102L250.39,198.11L250.885,198.119L251.364,198.129L251.825,198.14L252.269,198.153L252.697,198.168L253.109,198.184L253.506,198.203L253.89,198.223L254.262,198.246L254.612,198.271L254.802,198.286L254.981,198.302L255.158,198.318L255.302,198.333L255.881,198.413L256.452,198.536L257.013,198.7L257.56,198.904L258.091,199.148L258.603,199.43L259.093,199.748L259.559,200.102L259.997,200.488L260.406,200.906L260.783,201.352L261.127,201.824L261.436,202.32L261.707,202.838L261.94,203.374L262.133,203.926L262.285,204.49L262.396,205.063L262.464,205.644L262.49,206.228L262.474,206.812L262.415,207.393L262.313,207.968L262.17,208.535L261.986,209.089L261.761,209.629L261.498,210.151L261.198,210.652L260.862,211.13L260.492,211.582L260.089,212.006L259.657,212.4L259.198,212.76L258.713,213.087L258.206,213.377L257.679,213.629L257.134,213.842L256.576,214.015L256.007,214.147L255.429,214.236L254.847,214.284L254.263,214.288L253.68,214.25L253.599,214.242L253.541,214.237L253.472,214.231L253.403,214.225L253.201,214.211L252.974,214.197L252.715,214.183L252.425,214.17L252.107,214.157L251.761,214.145L251.389,214.134L250.993,214.124L250.572,214.116L250.129,214.108L249.663,214.101L249.175,214.095L248.667,214.09L248.137,214.086L247.588,214.084L247.019,214.082L246.43,214.081L245.823,214.082L245.198,214.083L244.555,214.085L243.894,214.088L243.217,214.092L242.522,214.098L241.813,214.103L240.342,214.118L238.811,214.136L237.223,214.157L235.578,214.18L233.881,214.207L232.134,214.237L230.338,214.269L228.498,214.303L226.616,214.339L224.694,214.378L222.735,214.418L220.741,214.46L218.715,214.504L214.577,214.595L210.343,214.691L206.031,214.789L201.664,214.889L197.26,214.989L192.84,215.087L188.425,215.184L186.225,215.231L184.034,215.277L181.854,215.321L179.687,215.365L177.537,215.406L175.406,215.446L173.295,215.484L171.209,215.52L169.148,215.553L167.116,215.585L165.116,215.613L163.148,215.639L161.217,215.662L159.324,215.682L157.474,215.699L156.563,215.706L155.664,215.712L154.776,215.717L153.901,215.722L153.037,215.725L152.186,215.728L151.347,215.729L150.521,215.73L149.708,215.729L148.908,215.728L148.123,215.725L147.351,215.721L146.593,215.717L145.85,215.711L145.121,215.703L144.408,215.695L143.709,215.686L143.035,215.675L142.452,215.644L141.872,215.571L141.299,215.456L140.736,215.299L140.186,215.102L139.652,214.865L139.137,214.589L138.643,214.277L138.173,213.93L137.73,213.549L137.316,213.137L136.933,212.695L136.583,212.227L136.268,211.735L135.99,211.221L135.751,210.688L135.551,210.139L135.391,209.576L135.273,209.004L135.197,208.425L135.164,207.841L135.173,207.257L135.225,206.675L135.319,206.098L135.455,205.53L135.632,204.973L135.85,204.431L136.106,203.906L136.4,203.401L136.73,202.919L137.095,202.462L137.492,202.033L137.919,201.634L138.374,201.267L138.854,200.935L139.358,200.638L139.882,200.379L140.423,200.159L140.979,199.98L141.547,199.841L142.123,199.744L142.705,199.689L143.289,199.677L143.946,199.687L144.611,199.696L145.293,199.704L145.993,199.711L146.709,199.717L147.44,199.722L148.188,199.725L148.951,199.728L149.729,199.729L150.521,199.73L151.327,199.729L152.148,199.728L152.982,199.725L153.829,199.722L154.689,199.718L155.561,199.712L156.445,199.706L157.34,199.699L159.168,199.683L161.038,199.663L162.948,199.64L164.896,199.615L166.879,199.586L168.895,199.555L170.941,199.522L173.014,199.486L175.112,199.449L177.233,199.409L179.373,199.368L181.531,199.325L183.703,199.28L185.887,199.235L188.08,199.188L192.486,199.091L196.899,198.993L201.299,198.893L205.667,198.793L209.98,198.695L214.221,198.599L218.367,198.508L220.4,198.464L222.401,198.422L224.369,198.381L226.301,198.343L228.194,198.306L230.047,198.271L231.856,198.239L233.62,198.209L235.336,198.182L237.001,198.158L238.613,198.137L240.171,198.119L241.668,198.104L242.398,198.098L243.11,198.093L243.807,198.089L244.488,198.085L245.154,198.083L245.803,198.082L246.436,198.081L247.052,198.082Z" style="fill:black;"/>
    </g>
</svg>
